<svg id="Layer_1" data-name="Layer 1" xmlns="http://www.w3.org/2000/svg" viewBox="0 0 276.88 52.77"><defs><style>.cls-1{fill:#cbbba0;}.cls-2{fill:#e71e85;}.cls-3{fill:#7b6d5b;}</style></defs><title>OfficeSupplies</title><path class="cls-1" d="M442,583.25,439.1,597c-.87,4.13-4.37,8.06-8.88,8.06-2.4,0-4.32-1.1-4.32-3.45a27.62,27.62,0,0,1,.57-3.84l3.17-14.5h-4.08l-3,14.16a26.33,26.33,0,0,0-.72,4.85c0,4.37,2.25,6.38,6.91,6.38a11,11,0,0,0,8.83-4.32h.1l-.77,3.75h3.94l5.23-24.82Z" transform="translate(-282.51 -572.98)"/><path class="cls-1" d="M461.71,582.67a9.23,9.23,0,0,0-8.21,4.13h-.1l.87-3.55h-3.84l-7.25,34.32h4l2.64-13.29h.1c.95,3.31,4.7,4.36,7.72,4.36,8.69,0,13.78-8.25,13.78-15.79C471.45,586.8,468,582.67,461.71,582.67ZM457.53,605c-4,0-6.24-2.73-6.24-6.43,0-5.18,3.5-12.34,9.7-12.34,4.46,0,6.38,2.55,6.38,6.58C467.37,598.32,464,605,457.53,605Z" transform="translate(-282.51 -572.98)"/><path class="cls-1" d="M487.91,582.67a9.21,9.21,0,0,0-8.2,4.13h-.1l.86-3.55h-3.84l-7.25,34.32h4l2.64-13.29h.09c1,3.31,4.71,4.36,7.73,4.36,8.69,0,13.78-8.25,13.78-15.79C497.66,586.8,494.25,582.67,487.91,582.67ZM483.74,605c-4,0-6.24-2.73-6.24-6.43,0-5.18,3.5-12.34,9.69-12.34,4.47,0,6.39,2.55,6.39,6.58C493.58,598.32,490.22,605,483.74,605Z" transform="translate(-282.51 -572.98)"/><polygon class="cls-1" points="222.4 0.81 215.2 35.09 219.28 35.09 226.48 0.81 222.4 0.81"/><polygon class="cls-1" points="234.88 0.81 230.75 0.81 229.69 5.81 233.82 5.81 234.88 0.81"/><polygon class="cls-1" points="228.78 10.27 223.59 35.09 227.68 35.09 232.86 10.27 228.78 10.27"/><path class="cls-1" d="M525.73,605c-3.31,0-6.43-2.16-6.43-6a15.68,15.68,0,0,1,.15-2.16h18.67a16.16,16.16,0,0,0,.38-3.21c0-7-3.21-11-10.51-11-6.82,0-12.77,6.48-12.77,16,0,4.32,2.31,10,10.51,10,5.43,0,9.94-2.88,11.24-8.35h-4.08A7.06,7.06,0,0,1,525.73,605Zm2.89-18.77c4.51,0,6.09,3.51,5.8,7H520C521.22,589.44,523.81,586.27,528.62,586.27Z" transform="translate(-282.51 -572.98)"/><path class="cls-1" d="M551.41,594c-3.26-1.34-6.52-2.25-6.52-4.56,0-2.49,2.78-3.17,5.28-3.17,2.83,0,5.32,1.44,5.13,4.28h4.08c0-5.81-4.75-7.88-9.36-7.88s-9.22,2.55-9.22,7.16c0,3.74,3.27,5.42,6.58,6.72s6.53,2.3,6.53,4.7c0,2.83-3,3.79-5.66,3.79-3.41,0-6.53-1.1-6.34-4.8h-4.08c-.05,6.34,4.37,8.4,10,8.4,4.8,0,10.13-2.16,10.13-7.68C558,597.07,554.68,595.35,551.41,594Z" transform="translate(-282.51 -572.98)"/><path class="cls-1" d="M411.55,589.2,406.94,588c-3.12-.86-5.57-2.2-5.57-5.52,0-4.08,4.56-5.61,7.92-5.61,4.7,0,8,1.68,7.87,7.1h4.56c.24-7.63-5.66-10.94-12.43-10.94-6.1,0-12.48,3.31-12.48,9.93,0,5,3.6,7.54,7.68,8.64l4.66,1.25c3.36.91,6.09,2.16,6.09,5.67,0,4.61-4.32,6.57-8.59,6.57-4.11,0-7.27-1.1-8.53-4.16l-4.06,2.21c2,4,6.6,5.79,12.4,5.79,6.19,0,13.34-3.36,13.34-10.41C419.8,592.32,415.82,590.35,411.55,589.2Z" transform="translate(-282.51 -572.98)"/><path class="cls-2" d="M315.34,590.93c0,9.79-6.14,18-16.42,18s-16.41-8.16-16.41-18S288.65,573,298.92,573,315.34,581.14,315.34,590.93Zm-26.83,0c0,6.58,3.07,13.06,10.41,13.06s10.42-6.48,10.42-13.06-3.07-13.06-10.42-13.06S288.51,584.35,288.51,590.93Z" transform="translate(-282.51 -572.98)"/><path class="cls-2" d="M315.34,583.25h4.08v-2.06c0-6.34,3.31-7.4,6.86-7.4a15.32,15.32,0,0,1,3.84.34v4.27a9.34,9.34,0,0,0-2.54-.29c-1.49,0-2.69.53-2.69,2.6v2.54h4.66v4.08h-4.66v20.74h-5.47V587.33h-4.08Z" transform="translate(-282.51 -572.98)"/><path class="cls-2" d="M327.34,583.25h4.08v-2.06c0-6.34,3.31-7.4,6.86-7.4a15.32,15.32,0,0,1,3.84.34v4.27a9.34,9.34,0,0,0-2.54-.29c-1.49,0-2.69.53-2.69,2.6v2.54h4.66v4.08h-4.66v20.74h-5.47V587.33h-4.08Z" transform="translate(-282.51 -572.98)"/><path class="cls-2" d="M342.79,573.79h5.48V579h-5.48Zm0,9.46h5.48v24.82h-5.48Z" transform="translate(-282.51 -572.98)"/><path class="cls-2" d="M368.71,591.55c-.43-3-2.64-4.65-5.66-4.65-2.83,0-6.82,1.49-6.82,9,0,4.13,1.83,8.5,6.58,8.5,3.17,0,5.38-2.11,5.9-5.66h5.48c-1,6.43-5,10-11.38,10-7.78,0-12.05-5.52-12.05-12.82,0-7.49,4.08-13.34,12.24-13.34,5.76,0,10.66,2.88,11.19,9Z" transform="translate(-282.51 -572.98)"/><path class="cls-2" d="M380.67,597.07c0,3.89,2.11,7.35,6.67,7.35,3.17,0,5.09-1.39,6.05-4.13h5.18c-1.2,5.43-5.81,8.45-11.23,8.45-7.78,0-12.15-5.42-12.15-13.06,0-7,4.61-13.1,12-13.1,7.83,0,12.63,7,11.72,14.49Zm12.77-3.6c-.2-3.45-2.55-6.57-6.25-6.57a6.48,6.48,0,0,0-6.52,6.57Z" transform="translate(-282.51 -572.98)"/><path class="cls-3" d="M284.76,618.24h-1.25c.29-1.27.29-2.78,1.87-2.91l-.11.54c-.6.09-.73.61-.87,1.12H285Zm2.05,0h-1.25c.3-1.27.3-2.78,1.87-2.91l-.11.54c-.6.09-.73.61-.87,1.12h.63Z" transform="translate(-282.51 -572.98)"/><path class="cls-3" d="M288.55,615.33h1.07l-1.69,8h-1.07Z" transform="translate(-282.51 -572.98)"/><path class="cls-3" d="M293.17,619.26c.05-.66-.54-1-1.2-1s-1.24.16-1.24.74.76.76,1.53,1.08,1.55.72,1.55,1.63c0,1.3-1.26,1.8-2.38,1.8-1.33,0-2.37-.48-2.36-2h1c0,.87.69,1.13,1.49,1.13.62,0,1.33-.23,1.33-.89s-.77-.79-1.54-1.11-1.54-.7-1.54-1.58c0-1.08,1.08-1.68,2.16-1.68s2.2.49,2.2,1.85Z" transform="translate(-282.51 -572.98)"/><path class="cls-3" d="M299.16,617.55h1.17l-.18.84H299l-.72,3.43c0,.14,0,.25,0,.39,0,.3.28.39.57.39a1.74,1.74,0,0,0,.56-.1l-.17.88a3.92,3.92,0,0,1-.68.07c-.71,0-1.31-.21-1.31-1a3,3,0,0,1,.06-.49l.77-3.62h-1l.19-.84h1l.36-1.73h1Z" transform="translate(-282.51 -572.98)"/><path class="cls-3" d="M301.34,615.33h1l-.69,3.08,0,0a2.59,2.59,0,0,1,2.08-1c1.09,0,1.62.48,1.62,1.5a5.49,5.49,0,0,1-.17,1.14l-.71,3.33h-.95l.74-3.41a7.29,7.29,0,0,0,.14-.9c0-.55-.46-.81-1-.81a2.07,2.07,0,0,0-1.44.68,2.42,2.42,0,0,0-.65,1.21l-.67,3.23h-1Z" transform="translate(-282.51 -572.98)"/><path class="cls-3" d="M306.6,617.55h1l-1.22,5.83h-1Zm1.18-1h-1l.25-1.17h1Z" transform="translate(-282.51 -572.98)"/><path class="cls-3" d="M311.41,619.26c0-.66-.54-1-1.2-1s-1.24.16-1.24.74.76.76,1.53,1.08,1.54.72,1.54,1.63c0,1.3-1.25,1.8-2.37,1.8-1.33,0-2.37-.48-2.36-2h1c0,.87.69,1.13,1.49,1.13.62,0,1.33-.23,1.33-.89s-.77-.79-1.54-1.11S308,620,308,619.09c0-1.08,1.08-1.68,2.16-1.68s2.2.49,2.2,1.85Z" transform="translate(-282.51 -572.98)"/><path class="cls-3" d="M320.09,622.53a10.76,10.76,0,0,1-.46,1.59,2.59,2.59,0,0,1-2.65,1.63c-1.18,0-2.28-.51-2.32-1.81h1c.06.78.73,1,1.47,1,1.48,0,1.78-1.18,2.08-2.34l0,0a2.09,2.09,0,0,1-1.82.89,2.13,2.13,0,0,1-2.18-2.41c0-1.72,1.14-3.6,3-3.6A1.82,1.82,0,0,1,320,618.6v0h0l.18-1.07h.9Zm-2.55.05c1.44,0,2.12-1.63,2.12-2.8a1.37,1.37,0,0,0-1.49-1.52c-1.34,0-2.06,1.68-2.06,2.75A1.42,1.42,0,0,0,317.54,622.58Z" transform="translate(-282.51 -572.98)"/><path class="cls-3" d="M324.31,617.41a2.19,2.19,0,0,1,2.42,2.42c0,1.9-1.18,3.68-3.23,3.68a2.3,2.3,0,0,1-2.45-2.43A3.39,3.39,0,0,1,324.31,617.41Zm-.7,5.26c1.39,0,2.16-1.61,2.16-2.76a1.47,1.47,0,0,0-1.53-1.65c-1.47,0-2.24,1.6-2.24,2.81A1.47,1.47,0,0,0,323.61,622.67Z" transform="translate(-282.51 -572.98)"/><path class="cls-3" d="M330.25,617.41a2.18,2.18,0,0,1,2.42,2.42c0,1.9-1.18,3.68-3.22,3.68a2.3,2.3,0,0,1-2.46-2.43A3.4,3.4,0,0,1,330.25,617.41Zm-.7,5.26c1.4,0,2.16-1.61,2.16-2.76a1.47,1.47,0,0,0-1.53-1.65c-1.46,0-2.23,1.6-2.23,2.81A1.47,1.47,0,0,0,329.55,622.67Z" transform="translate(-282.51 -572.98)"/><path class="cls-3" d="M337.87,623.38H337l.2-.84h0a2.33,2.33,0,0,1-4.22-1.42c0-1.77,1.2-3.71,3.24-3.71a1.76,1.76,0,0,1,1.82,1h0l.62-3.11h.95Zm-2.48-.71c1.46,0,2.28-1.68,2.28-2.9a1.39,1.39,0,0,0-1.47-1.51c-1.52,0-2.31,1.58-2.31,2.86A1.36,1.36,0,0,0,335.39,622.67Z" transform="translate(-282.51 -572.98)"/><path class="cls-3" d="M342.85,618.39h-1l.16-.84h1c.3-1.18.35-2.31,1.88-2.31a3.07,3.07,0,0,1,.8.09l-.16.81a2.22,2.22,0,0,0-.45-.06c-1,0-.9.76-1.13,1.47h1.12l-.16.84h-1.13l-1.07,5h-1Z" transform="translate(-282.51 -572.98)"/><path class="cls-3" d="M347.77,617.41a2.19,2.19,0,0,1,2.42,2.42c0,1.9-1.18,3.68-3.23,3.68a2.3,2.3,0,0,1-2.45-2.43A3.39,3.39,0,0,1,347.77,617.41Zm-.7,5.26c1.39,0,2.16-1.61,2.16-2.76a1.47,1.47,0,0,0-1.53-1.65c-1.47,0-2.24,1.6-2.24,2.81A1.47,1.47,0,0,0,347.07,622.67Z" transform="translate(-282.51 -572.98)"/><path class="cls-3" d="M351.42,617.55h.9L352,618.8h0a2.41,2.41,0,0,1,2.12-1.39,1.93,1.93,0,0,1,.34,0l-.22,1H354a1.81,1.81,0,0,0-.57.06,2.08,2.08,0,0,0-1.24.94,3.88,3.88,0,0,0-.49,1.37l-.55,2.58h-1Z" transform="translate(-282.51 -572.98)"/><path class="cls-3" d="M358.58,617.55h1.16l-.18.84H358.4l-.72,3.43c0,.14,0,.25,0,.39,0,.3.28.39.57.39a1.72,1.72,0,0,0,.55-.1l-.17.88a3.81,3.81,0,0,1-.67.07c-.71,0-1.31-.21-1.31-1a2.18,2.18,0,0,1,.06-.49l.76-3.62h-1l.18-.84h1l.36-1.73h1Z" transform="translate(-282.51 -572.98)"/><path class="cls-3" d="M360.76,615.33h1l-.69,3.08,0,0a2.59,2.59,0,0,1,2.08-1c1.09,0,1.62.48,1.62,1.5a6.27,6.27,0,0,1-.17,1.14l-.71,3.33h-1l.75-3.41a7.23,7.23,0,0,0,.13-.9c0-.55-.45-.81-1-.81a2.09,2.09,0,0,0-1.45.68,2.4,2.4,0,0,0-.64,1.21l-.68,3.23h-.95Z" transform="translate(-282.51 -572.98)"/><path class="cls-3" d="M366,620.75a4.38,4.38,0,0,0,0,.51,1.43,1.43,0,0,0,1.52,1.41,1.66,1.66,0,0,0,1.68-1.12h.95a2.52,2.52,0,0,1-2.63,2,2.23,2.23,0,0,1-2.47-2.34c0-2.23,1.39-3.76,3-3.76s2.47.94,2.47,2.59a4,4,0,0,1-.09.75Zm3.52-.84c.06-.83-.31-1.65-1.37-1.65a2.07,2.07,0,0,0-2,1.65Z" transform="translate(-282.51 -572.98)"/><path class="cls-3" d="M377.68,619.4a1.11,1.11,0,0,0-1.23-1.14,2.53,2.53,0,0,0-2.27,2.74c0,.9.37,1.67,1.44,1.67a1.78,1.78,0,0,0,1.71-1.2h1a2.59,2.59,0,0,1-2.67,2,2.22,2.22,0,0,1-2.4-2.51,3.31,3.31,0,0,1,3.23-3.59,1.91,1.91,0,0,1,2.18,2Z" transform="translate(-282.51 -572.98)"/><path class="cls-3" d="M382,617.41a2.19,2.19,0,0,1,2.43,2.42c0,1.9-1.19,3.68-3.23,3.68a2.31,2.31,0,0,1-2.46-2.43A3.4,3.4,0,0,1,382,617.41Zm-.7,5.26c1.4,0,2.17-1.61,2.17-2.76a1.48,1.48,0,0,0-1.53-1.65c-1.47,0-2.24,1.6-2.24,2.81A1.47,1.47,0,0,0,381.26,622.67Z" transform="translate(-282.51 -572.98)"/><path class="cls-3" d="M385.64,617.55h.89l-.21.87,0,0a2.67,2.67,0,0,1,2-1,1.34,1.34,0,0,1,1.47,1.05,2.53,2.53,0,0,1,2-1.05c.82,0,1.62.36,1.62,1.31a6.35,6.35,0,0,1-.16,1.16l-.74,3.5h-1l.82-3.7a3.54,3.54,0,0,0,.09-.63.83.83,0,0,0-.9-.79,2.06,2.06,0,0,0-1.46.8,2.58,2.58,0,0,0-.54,1.31l-.64,3h-1l.7-3.33a7.87,7.87,0,0,0,.18-1,.72.72,0,0,0-.82-.77,2.11,2.11,0,0,0-1.43.74,2.3,2.3,0,0,0-.62,1.32l-.65,3.06h-1Z" transform="translate(-282.51 -572.98)"/><path class="cls-3" d="M394.69,617.55h.9l-.21.83h0a2.32,2.32,0,0,1,4.21,1.42c0,1.77-1.19,3.71-3.23,3.71a1.76,1.76,0,0,1-1.82-1h0l-.62,3.12H393Zm2.48.71c-1.46,0-2.28,1.68-2.28,2.9a1.39,1.39,0,0,0,1.46,1.51c1.53,0,2.32-1.58,2.32-2.87A1.36,1.36,0,0,0,397.17,618.26Z" transform="translate(-282.51 -572.98)"/><path class="cls-3" d="M400.29,619.31a2.31,2.31,0,0,1,2.53-1.9c1.12,0,2.13.31,2.13,1.49a5.34,5.34,0,0,1-.18,1.06l-.37,1.59a4.46,4.46,0,0,0-.16.84c0,.27.12.36.28.36a1.11,1.11,0,0,0,.3-.08l-.14.71a1.49,1.49,0,0,1-.59.13.67.67,0,0,1-.75-.82l0,0a2.18,2.18,0,0,1-1.95.84,1.56,1.56,0,0,1-1.78-1.64c0-1.69,1.66-1.81,2.94-1.92,1-.09,1.47-.15,1.47-.92s-.67-.77-1.17-.77c-.74,0-1.46.29-1.57,1Zm1.3,3.36a1.79,1.79,0,0,0,1.63-.77,4,4,0,0,0,.51-1.5h0a5.66,5.66,0,0,1-1.87.4c-.69.1-1.3.31-1.3,1.06C400.54,622.4,401.05,622.67,401.59,622.67Z" transform="translate(-282.51 -572.98)"/><path class="cls-3" d="M406.19,617.55h.92l-.18.88h0a2.56,2.56,0,0,1,2.07-1c1.1,0,1.63.48,1.63,1.5a6.27,6.27,0,0,1-.17,1.14l-.71,3.33h-1l.74-3.41a5.78,5.78,0,0,0,.14-.9c0-.55-.45-.81-1-.81a2.07,2.07,0,0,0-1.44.68,2.33,2.33,0,0,0-.64,1.21l-.68,3.23h-1Z" transform="translate(-282.51 -572.98)"/><path class="cls-3" d="M412.6,624.37c-.48.76-.91,1.38-1.89,1.38a1.6,1.6,0,0,1-.66-.15l.17-.78a1.17,1.17,0,0,0,.55.16,1,1,0,0,0,.9-.63l.59-1-1-5.83h1l.68,4.63h0l2.44-4.63h1.05Z" transform="translate(-282.51 -572.98)"/><path class="cls-3" d="M416.62,617.88a2.7,2.7,0,0,1,2.73-2.64c1.13,0,2.34.58,2.34,1.86,0,2.32-2.47,2.28-2.84,4l-.05.25h-.94a3.13,3.13,0,0,1,.57-1.46,4.86,4.86,0,0,1,1.17-1,2.06,2.06,0,0,0,1.07-1.58,1.15,1.15,0,0,0-1.3-1.19,1.79,1.79,0,0,0-1.79,1.8Zm.94,4.25h1.25l-.27,1.25h-1.25Z" transform="translate(-282.51 -572.98)"/><path class="cls-3" d="M423,615.33h1.25c-.29,1.26-.29,2.77-1.87,2.91l.12-.54c.59-.09.73-.61.86-1.12h-.63Zm2.06,0h1.25c-.3,1.26-.3,2.77-1.87,2.91l.11-.54c.6-.09.73-.61.87-1.12h-.63Z" transform="translate(-282.51 -572.98)"/></svg>